<svg width="68" height="107" viewBox="0 0 68 107" fill="none" xmlns="http://www.w3.org/2000/svg">
<path d="M22.344 48.12C23.88 48.5467 25.3307 48.8453 26.696 49.016C28.1467 49.1013 29.384 49.144 30.408 49.144C32.0293 49.144 33.5653 48.9733 35.016 48.632C36.552 48.2053 37.8747 47.5227 38.984 46.584C40.0933 45.6453 40.9893 44.408 41.672 42.872C42.3547 41.2507 42.696 39.2027 42.696 36.728C42.696 34.168 42.312 32.0773 41.544 30.456C40.8613 28.7493 39.9227 27.4267 38.728 26.488C37.5333 25.5493 36.1253 24.9093 34.504 24.568C32.968 24.2267 31.3467 24.056 29.64 24.056C27.1653 24.056 24.7333 24.312 22.344 24.824V48.12ZM0.456 107C0.712 98.8933 0.882667 90.8293 0.968 82.808C1.05333 74.7013 1.096 67.0213 1.096 59.768C1.096 49.4427 1.01067 39.6293 0.84 30.328C0.754667 21.0267 0.626667 11.6827 0.456 2.296C4.63733 1.86933 8.81867 1.528 13 1.272C17.2667 0.930662 21.448 0.759995 25.544 0.759995C31.432 0.759995 36.936 1.22933 42.056 2.16799C47.176 3.10666 51.6133 4.856 55.368 7.41599C59.208 9.89066 62.2373 13.3893 64.456 17.912C66.6747 22.3493 67.784 28.0667 67.784 35.064C67.784 41.5493 66.8453 47.096 64.968 51.704C63.0907 56.2267 60.4453 59.9387 57.032 62.84C53.704 65.656 49.6933 67.704 45 68.984C40.3067 70.264 35.1013 70.904 29.384 70.904C27.9333 70.904 26.6533 70.8613 25.544 70.776C24.52 70.6907 23.368 70.5627 22.088 70.392C22.088 76.536 22.1307 82.6373 22.216 88.696C22.3013 94.7547 22.5573 100.856 22.984 107H0.456Z" fill="#5D001E"/>
</svg>
